<svg t="1684758860767" class="icon" viewBox="0 0 1024 1024" version="1.1" xmlns="http://www.w3.org/2000/svg" p-id="1279" width="200" height="200"><path d="M538.197333 202.410667a42.666667 42.666667 0 0 0-52.394666 0L213.333333 414.336V768a42.666667 42.666667 0 0 0 42.666667 42.666667h108.16A170.666667 170.666667 0 0 1 512 554.666667h128a42.666667 42.666667 0 0 1 42.666667 42.666666v128a169.813333 169.813333 0 0 1-22.826667 85.333334H768a42.666667 42.666667 0 0 0 42.666667-42.666667V414.336l-272.469334-211.925333zM512 896H256a128 128 0 0 1-128-128v-298.666667a42.581333 42.581333 0 0 1-26.197333-76.373333l331.605333-257.877333a128 128 0 0 1 157.184 0l331.605333 257.92A42.666667 42.666667 0 0 1 896 469.333333V768a128 128 0 0 1-128 128h-256z m0-85.333333a85.333333 85.333333 0 0 0 85.333333-85.333334v-85.333333h-85.333333a85.333333 85.333333 0 0 0 0 170.666667z" fill="#d81e06" p-id="1280"></path></svg>
